<mxfile host="Electron" agent="Mozilla/5.0 (Windows NT 10.0; Win64; x64) AppleWebKit/537.36 (KHTML, like Gecko) draw.io/24.7.17 Chrome/128.0.6613.36 Electron/32.0.1 Safari/537.36" version="24.7.17">
  <diagram id="KO6niFGIZyBwCxcvNmvr" name="Страница 1">
    <mxGraphModel dx="2261" dy="845" grid="1" gridSize="10" guides="1" tooltips="1" connect="1" arrows="1" fold="1" page="1" pageScale="1" pageWidth="827" pageHeight="1169" math="0" shadow="0">
      <root>
        <mxCell id="0" />
        <mxCell id="1" parent="0" />
        <mxCell id="TT09oPKRdmAvClJlmY-6-1" value="Component" style="swimlane;fontStyle=1;align=center;verticalAlign=top;childLayout=stackLayout;horizontal=1;startSize=26;horizontalStack=0;resizeParent=1;resizeParentMax=0;resizeLast=0;collapsible=1;marginBottom=0;" parent="1" vertex="1">
          <mxGeometry x="300" y="80" width="160" height="86" as="geometry" />
        </mxCell>
        <mxCell id="TT09oPKRdmAvClJlmY-6-2" value="+ field: type" style="text;strokeColor=none;fillColor=none;align=left;verticalAlign=top;spacingLeft=4;spacingRight=4;overflow=hidden;rotatable=0;points=[[0,0.5],[1,0.5]];portConstraint=eastwest;" parent="TT09oPKRdmAvClJlmY-6-1" vertex="1">
          <mxGeometry y="26" width="160" height="26" as="geometry" />
        </mxCell>
        <mxCell id="TT09oPKRdmAvClJlmY-6-3" value="" style="line;strokeWidth=1;fillColor=none;align=left;verticalAlign=middle;spacingTop=-1;spacingLeft=3;spacingRight=3;rotatable=0;labelPosition=right;points=[];portConstraint=eastwest;" parent="TT09oPKRdmAvClJlmY-6-1" vertex="1">
          <mxGeometry y="52" width="160" height="8" as="geometry" />
        </mxCell>
        <mxCell id="TT09oPKRdmAvClJlmY-6-4" value="+ method(type): type" style="text;strokeColor=none;fillColor=none;align=left;verticalAlign=top;spacingLeft=4;spacingRight=4;overflow=hidden;rotatable=0;points=[[0,0.5],[1,0.5]];portConstraint=eastwest;" parent="TT09oPKRdmAvClJlmY-6-1" vertex="1">
          <mxGeometry y="60" width="160" height="26" as="geometry" />
        </mxCell>
        <mxCell id="TT09oPKRdmAvClJlmY-6-5" value="CompoundAddable" style="swimlane;fontStyle=1;align=center;verticalAlign=top;childLayout=stackLayout;horizontal=1;startSize=26;horizontalStack=0;resizeParent=1;resizeParentMax=0;resizeLast=0;collapsible=1;marginBottom=0;" parent="1" vertex="1">
          <mxGeometry x="300" y="240" width="160" height="86" as="geometry" />
        </mxCell>
        <mxCell id="TT09oPKRdmAvClJlmY-6-6" value="+ field: type" style="text;strokeColor=none;fillColor=none;align=left;verticalAlign=top;spacingLeft=4;spacingRight=4;overflow=hidden;rotatable=0;points=[[0,0.5],[1,0.5]];portConstraint=eastwest;" parent="TT09oPKRdmAvClJlmY-6-5" vertex="1">
          <mxGeometry y="26" width="160" height="26" as="geometry" />
        </mxCell>
        <mxCell id="TT09oPKRdmAvClJlmY-6-7" value="" style="line;strokeWidth=1;fillColor=none;align=left;verticalAlign=middle;spacingTop=-1;spacingLeft=3;spacingRight=3;rotatable=0;labelPosition=right;points=[];portConstraint=eastwest;" parent="TT09oPKRdmAvClJlmY-6-5" vertex="1">
          <mxGeometry y="52" width="160" height="8" as="geometry" />
        </mxCell>
        <mxCell id="TT09oPKRdmAvClJlmY-6-8" value="+ method(type): type" style="text;strokeColor=none;fillColor=none;align=left;verticalAlign=top;spacingLeft=4;spacingRight=4;overflow=hidden;rotatable=0;points=[[0,0.5],[1,0.5]];portConstraint=eastwest;" parent="TT09oPKRdmAvClJlmY-6-5" vertex="1">
          <mxGeometry y="60" width="160" height="26" as="geometry" />
        </mxCell>
        <mxCell id="TT09oPKRdmAvClJlmY-6-9" value="Composite" style="swimlane;fontStyle=1;align=center;verticalAlign=top;childLayout=stackLayout;horizontal=1;startSize=26;horizontalStack=0;resizeParent=1;resizeParentMax=0;resizeLast=0;collapsible=1;marginBottom=0;" parent="1" vertex="1">
          <mxGeometry x="450" y="410" width="160" height="86" as="geometry" />
        </mxCell>
        <mxCell id="TT09oPKRdmAvClJlmY-6-10" value="Add(compoundAddable)" style="text;strokeColor=none;fillColor=none;align=left;verticalAlign=top;spacingLeft=4;spacingRight=4;overflow=hidden;rotatable=0;points=[[0,0.5],[1,0.5]];portConstraint=eastwest;" parent="TT09oPKRdmAvClJlmY-6-9" vertex="1">
          <mxGeometry y="26" width="160" height="26" as="geometry" />
        </mxCell>
        <mxCell id="TT09oPKRdmAvClJlmY-6-11" value="" style="line;strokeWidth=1;fillColor=none;align=left;verticalAlign=middle;spacingTop=-1;spacingLeft=3;spacingRight=3;rotatable=0;labelPosition=right;points=[];portConstraint=eastwest;" parent="TT09oPKRdmAvClJlmY-6-9" vertex="1">
          <mxGeometry y="52" width="160" height="8" as="geometry" />
        </mxCell>
        <mxCell id="TT09oPKRdmAvClJlmY-6-12" value="+ method(type): type" style="text;strokeColor=none;fillColor=none;align=left;verticalAlign=top;spacingLeft=4;spacingRight=4;overflow=hidden;rotatable=0;points=[[0,0.5],[1,0.5]];portConstraint=eastwest;" parent="TT09oPKRdmAvClJlmY-6-9" vertex="1">
          <mxGeometry y="60" width="160" height="26" as="geometry" />
        </mxCell>
        <mxCell id="TT09oPKRdmAvClJlmY-6-13" value="Ellipse" style="swimlane;fontStyle=1;align=center;verticalAlign=top;childLayout=stackLayout;horizontal=1;startSize=26;horizontalStack=0;resizeParent=1;resizeParentMax=0;resizeLast=0;collapsible=1;marginBottom=0;" parent="1" vertex="1">
          <mxGeometry x="130" y="410" width="160" height="86" as="geometry" />
        </mxCell>
        <mxCell id="TT09oPKRdmAvClJlmY-6-14" value="+ field: type" style="text;strokeColor=none;fillColor=none;align=left;verticalAlign=top;spacingLeft=4;spacingRight=4;overflow=hidden;rotatable=0;points=[[0,0.5],[1,0.5]];portConstraint=eastwest;" parent="TT09oPKRdmAvClJlmY-6-13" vertex="1">
          <mxGeometry y="26" width="160" height="26" as="geometry" />
        </mxCell>
        <mxCell id="TT09oPKRdmAvClJlmY-6-15" value="" style="line;strokeWidth=1;fillColor=none;align=left;verticalAlign=middle;spacingTop=-1;spacingLeft=3;spacingRight=3;rotatable=0;labelPosition=right;points=[];portConstraint=eastwest;" parent="TT09oPKRdmAvClJlmY-6-13" vertex="1">
          <mxGeometry y="52" width="160" height="8" as="geometry" />
        </mxCell>
        <mxCell id="TT09oPKRdmAvClJlmY-6-16" value="+ method(type): type" style="text;strokeColor=none;fillColor=none;align=left;verticalAlign=top;spacingLeft=4;spacingRight=4;overflow=hidden;rotatable=0;points=[[0,0.5],[1,0.5]];portConstraint=eastwest;" parent="TT09oPKRdmAvClJlmY-6-13" vertex="1">
          <mxGeometry y="60" width="160" height="26" as="geometry" />
        </mxCell>
        <mxCell id="TT09oPKRdmAvClJlmY-6-19" value="Extends" style="endArrow=block;endSize=16;endFill=0;html=1;" parent="1" source="TT09oPKRdmAvClJlmY-6-5" target="TT09oPKRdmAvClJlmY-6-1" edge="1">
          <mxGeometry width="160" relative="1" as="geometry">
            <mxPoint x="50" y="270" as="sourcePoint" />
            <mxPoint x="210" y="270" as="targetPoint" />
          </mxGeometry>
        </mxCell>
        <mxCell id="TT09oPKRdmAvClJlmY-6-20" value="Extends" style="endArrow=block;endSize=16;endFill=0;html=1;" parent="1" source="TT09oPKRdmAvClJlmY-6-13" target="TT09oPKRdmAvClJlmY-6-5" edge="1">
          <mxGeometry width="160" relative="1" as="geometry">
            <mxPoint x="390" y="250" as="sourcePoint" />
            <mxPoint x="390" y="176" as="targetPoint" />
          </mxGeometry>
        </mxCell>
        <mxCell id="TT09oPKRdmAvClJlmY-6-21" value="Extends" style="endArrow=block;endSize=16;endFill=0;html=1;" parent="1" source="TT09oPKRdmAvClJlmY-6-9" target="TT09oPKRdmAvClJlmY-6-5" edge="1">
          <mxGeometry width="160" relative="1" as="geometry">
            <mxPoint x="263" y="420" as="sourcePoint" />
            <mxPoint x="347" y="336" as="targetPoint" />
          </mxGeometry>
        </mxCell>
        <mxCell id="TT09oPKRdmAvClJlmY-6-22" value="SomePrimitiveObject" style="swimlane;fontStyle=1;align=center;verticalAlign=top;childLayout=stackLayout;horizontal=1;startSize=26;horizontalStack=0;resizeParent=1;resizeParentMax=0;resizeLast=0;collapsible=1;marginBottom=0;" parent="1" vertex="1">
          <mxGeometry x="20" y="80" width="160" height="86" as="geometry" />
        </mxCell>
        <mxCell id="TT09oPKRdmAvClJlmY-6-23" value="+ field: type" style="text;strokeColor=none;fillColor=none;align=left;verticalAlign=top;spacingLeft=4;spacingRight=4;overflow=hidden;rotatable=0;points=[[0,0.5],[1,0.5]];portConstraint=eastwest;" parent="TT09oPKRdmAvClJlmY-6-22" vertex="1">
          <mxGeometry y="26" width="160" height="26" as="geometry" />
        </mxCell>
        <mxCell id="TT09oPKRdmAvClJlmY-6-24" value="" style="line;strokeWidth=1;fillColor=none;align=left;verticalAlign=middle;spacingTop=-1;spacingLeft=3;spacingRight=3;rotatable=0;labelPosition=right;points=[];portConstraint=eastwest;" parent="TT09oPKRdmAvClJlmY-6-22" vertex="1">
          <mxGeometry y="52" width="160" height="8" as="geometry" />
        </mxCell>
        <mxCell id="TT09oPKRdmAvClJlmY-6-25" value="+ method(type): type" style="text;strokeColor=none;fillColor=none;align=left;verticalAlign=top;spacingLeft=4;spacingRight=4;overflow=hidden;rotatable=0;points=[[0,0.5],[1,0.5]];portConstraint=eastwest;" parent="TT09oPKRdmAvClJlmY-6-22" vertex="1">
          <mxGeometry y="60" width="160" height="26" as="geometry" />
        </mxCell>
        <mxCell id="TT09oPKRdmAvClJlmY-6-27" value="Extends" style="endArrow=block;endSize=16;endFill=0;html=1;" parent="1" source="TT09oPKRdmAvClJlmY-6-22" target="TT09oPKRdmAvClJlmY-6-1" edge="1">
          <mxGeometry width="160" relative="1" as="geometry">
            <mxPoint x="390" y="250" as="sourcePoint" />
            <mxPoint x="390" y="176" as="targetPoint" />
          </mxGeometry>
        </mxCell>
        <mxCell id="TT09oPKRdmAvClJlmY-6-28" value="" style="endArrow=diamondThin;endFill=1;endSize=24;html=1;edgeStyle=orthogonalEdgeStyle;" parent="1" source="TT09oPKRdmAvClJlmY-6-5" target="TT09oPKRdmAvClJlmY-6-9" edge="1">
          <mxGeometry width="160" relative="1" as="geometry">
            <mxPoint x="760" y="360" as="sourcePoint" />
            <mxPoint x="920" y="360" as="targetPoint" />
            <Array as="points">
              <mxPoint x="530" y="283" />
            </Array>
          </mxGeometry>
        </mxCell>
        <mxCell id="TT09oPKRdmAvClJlmY-6-29" value="Shape" style="swimlane;fontStyle=1;align=center;verticalAlign=top;childLayout=stackLayout;horizontal=1;startSize=26;horizontalStack=0;resizeParent=1;resizeParentMax=0;resizeLast=0;collapsible=1;marginBottom=0;fillColor=#dae8fc;strokeColor=#6c8ebf;" parent="1" vertex="1">
          <mxGeometry x="200" y="804" width="160" height="52" as="geometry" />
        </mxCell>
        <mxCell id="TT09oPKRdmAvClJlmY-6-33" value="+GetLineStyle():ILineStyle" style="text;strokeColor=none;fillColor=none;align=left;verticalAlign=top;spacingLeft=4;spacingRight=4;overflow=hidden;rotatable=0;points=[[0,0.5],[1,0.5]];portConstraint=eastwest;fontStyle=2" parent="TT09oPKRdmAvClJlmY-6-29" vertex="1">
          <mxGeometry y="26" width="160" height="26" as="geometry" />
        </mxCell>
        <mxCell id="TT09oPKRdmAvClJlmY-6-34" value="ILineStyle" style="swimlane;fontStyle=1;align=center;verticalAlign=top;childLayout=stackLayout;horizontal=1;startSize=26;horizontalStack=0;resizeParent=1;resizeParentMax=0;resizeLast=0;collapsible=1;marginBottom=0;fillColor=#d5e8d4;strokeColor=#82b366;" parent="1" vertex="1">
          <mxGeometry x="520" y="804" width="160" height="78" as="geometry" />
        </mxCell>
        <mxCell id="TT09oPKRdmAvClJlmY-6-35" value="GetColor(): ?Color" style="text;strokeColor=none;fillColor=none;align=left;verticalAlign=top;spacingLeft=4;spacingRight=4;overflow=hidden;rotatable=0;points=[[0,0.5],[1,0.5]];portConstraint=eastwest;fontStyle=2" parent="TT09oPKRdmAvClJlmY-6-34" vertex="1">
          <mxGeometry y="26" width="160" height="26" as="geometry" />
        </mxCell>
        <mxCell id="TT09oPKRdmAvClJlmY-6-71" value="SetColor(color: Color)" style="text;strokeColor=none;fillColor=none;align=left;verticalAlign=top;spacingLeft=4;spacingRight=4;overflow=hidden;rotatable=0;points=[[0,0.5],[1,0.5]];portConstraint=eastwest;fontStyle=2" parent="TT09oPKRdmAvClJlmY-6-34" vertex="1">
          <mxGeometry y="52" width="160" height="26" as="geometry" />
        </mxCell>
        <mxCell id="TT09oPKRdmAvClJlmY-6-38" value="Use" style="endArrow=open;endSize=12;dashed=1;html=1;" parent="1" source="TT09oPKRdmAvClJlmY-6-29" target="TT09oPKRdmAvClJlmY-6-34" edge="1">
          <mxGeometry width="160" relative="1" as="geometry">
            <mxPoint x="360" y="934" as="sourcePoint" />
            <mxPoint x="520" y="934" as="targetPoint" />
          </mxGeometry>
        </mxCell>
        <mxCell id="TT09oPKRdmAvClJlmY-6-39" value="SimpleShape" style="swimlane;fontStyle=1;align=center;verticalAlign=top;childLayout=stackLayout;horizontal=1;startSize=26;horizontalStack=0;resizeParent=1;resizeParentMax=0;resizeLast=0;collapsible=1;marginBottom=0;fillColor=#dae8fc;strokeColor=#6c8ebf;" parent="1" vertex="1">
          <mxGeometry x="200" y="633" width="160" height="52" as="geometry" />
        </mxCell>
        <mxCell id="TT09oPKRdmAvClJlmY-6-43" value="Extends" style="endArrow=block;endSize=16;endFill=0;html=1;" parent="1" source="TT09oPKRdmAvClJlmY-6-39" target="TT09oPKRdmAvClJlmY-6-29" edge="1">
          <mxGeometry width="160" relative="1" as="geometry">
            <mxPoint x="240" y="884" as="sourcePoint" />
            <mxPoint x="400" y="884" as="targetPoint" />
          </mxGeometry>
        </mxCell>
        <mxCell id="TT09oPKRdmAvClJlmY-6-44" value="GroupShape" style="swimlane;fontStyle=1;align=center;verticalAlign=top;childLayout=stackLayout;horizontal=1;startSize=26;horizontalStack=0;resizeParent=1;resizeParentMax=0;resizeLast=0;collapsible=1;marginBottom=0;fillColor=#dae8fc;strokeColor=#6c8ebf;" parent="1" vertex="1">
          <mxGeometry x="160" y="1014" width="240" height="104" as="geometry" />
        </mxCell>
        <mxCell id="TT09oPKRdmAvClJlmY-6-65" value="+GetLineStyle():ILineStyle" style="text;strokeColor=none;fillColor=none;align=left;verticalAlign=top;spacingLeft=4;spacingRight=4;overflow=hidden;rotatable=0;points=[[0,0.5],[1,0.5]];portConstraint=eastwest;fontStyle=0" parent="TT09oPKRdmAvClJlmY-6-44" vertex="1">
          <mxGeometry y="26" width="240" height="26" as="geometry" />
        </mxCell>
        <mxCell id="TT09oPKRdmAvClJlmY-6-66" value="- m_lineStyle: CompositeLineStyle" style="text;strokeColor=none;fillColor=none;align=left;verticalAlign=top;spacingLeft=4;spacingRight=4;overflow=hidden;rotatable=0;points=[[0,0.5],[1,0.5]];portConstraint=eastwest;fontStyle=0" parent="TT09oPKRdmAvClJlmY-6-44" vertex="1">
          <mxGeometry y="52" width="240" height="26" as="geometry" />
        </mxCell>
        <mxCell id="TT09oPKRdmAvClJlmY-6-78" value="-m_shapes: [Shape]" style="text;strokeColor=none;fillColor=none;align=left;verticalAlign=top;spacingLeft=4;spacingRight=4;overflow=hidden;rotatable=0;points=[[0,0.5],[1,0.5]];portConstraint=eastwest;fontStyle=0" parent="TT09oPKRdmAvClJlmY-6-44" vertex="1">
          <mxGeometry y="78" width="240" height="26" as="geometry" />
        </mxCell>
        <mxCell id="TT09oPKRdmAvClJlmY-6-45" value="" style="endArrow=diamondThin;endFill=1;endSize=24;html=1;edgeStyle=orthogonalEdgeStyle;" parent="1" source="TT09oPKRdmAvClJlmY-6-29" target="TT09oPKRdmAvClJlmY-6-44" edge="1">
          <mxGeometry width="160" relative="1" as="geometry">
            <mxPoint x="320" y="944" as="sourcePoint" />
            <mxPoint x="480" y="944" as="targetPoint" />
            <Array as="points">
              <mxPoint x="80" y="830" />
              <mxPoint x="80" y="1030" />
            </Array>
          </mxGeometry>
        </mxCell>
        <mxCell id="TT09oPKRdmAvClJlmY-6-46" value="Extends" style="endArrow=block;endSize=16;endFill=0;html=1;" parent="1" source="TT09oPKRdmAvClJlmY-6-44" target="TT09oPKRdmAvClJlmY-6-29" edge="1">
          <mxGeometry width="160" relative="1" as="geometry">
            <mxPoint x="240" y="884" as="sourcePoint" />
            <mxPoint x="400" y="884" as="targetPoint" />
          </mxGeometry>
        </mxCell>
        <mxCell id="TT09oPKRdmAvClJlmY-6-47" value="SimpleLineStyle" style="swimlane;fontStyle=1;align=center;verticalAlign=top;childLayout=stackLayout;horizontal=1;startSize=26;horizontalStack=0;resizeParent=1;resizeParentMax=0;resizeLast=0;collapsible=1;marginBottom=0;fillColor=#d5e8d4;strokeColor=#82b366;" parent="1" vertex="1">
          <mxGeometry x="520" y="620" width="160" height="78" as="geometry" />
        </mxCell>
        <mxCell id="TT09oPKRdmAvClJlmY-6-50" value="GetColor(): ?Color" style="text;strokeColor=none;fillColor=none;align=left;verticalAlign=top;spacingLeft=4;spacingRight=4;overflow=hidden;rotatable=0;points=[[0,0.5],[1,0.5]];portConstraint=eastwest;fontStyle=0" parent="TT09oPKRdmAvClJlmY-6-47" vertex="1">
          <mxGeometry y="26" width="160" height="26" as="geometry" />
        </mxCell>
        <mxCell id="TT09oPKRdmAvClJlmY-6-49" value="m_color: Color" style="text;strokeColor=none;fillColor=none;align=left;verticalAlign=top;spacingLeft=4;spacingRight=4;overflow=hidden;rotatable=0;points=[[0,0.5],[1,0.5]];portConstraint=eastwest;" parent="TT09oPKRdmAvClJlmY-6-47" vertex="1">
          <mxGeometry y="52" width="160" height="26" as="geometry" />
        </mxCell>
        <mxCell id="TT09oPKRdmAvClJlmY-6-48" value="" style="endArrow=block;dashed=1;endFill=0;endSize=12;html=1;" parent="1" source="TT09oPKRdmAvClJlmY-6-47" target="TT09oPKRdmAvClJlmY-6-34" edge="1">
          <mxGeometry width="160" relative="1" as="geometry">
            <mxPoint x="550" y="744" as="sourcePoint" />
            <mxPoint x="710" y="744" as="targetPoint" />
          </mxGeometry>
        </mxCell>
        <mxCell id="TT09oPKRdmAvClJlmY-6-51" value="return m_color;" style="shape=note;whiteSpace=wrap;html=1;backgroundOutline=1;darkOpacity=0.05;size=19;align=left;fillColor=#ffff88;strokeColor=#36393d;" parent="1" vertex="1">
          <mxGeometry x="760" y="634" width="120" height="50" as="geometry" />
        </mxCell>
        <mxCell id="TT09oPKRdmAvClJlmY-6-52" style="edgeStyle=orthogonalEdgeStyle;rounded=0;orthogonalLoop=1;jettySize=auto;html=1;" parent="1" source="TT09oPKRdmAvClJlmY-6-50" target="TT09oPKRdmAvClJlmY-6-51" edge="1">
          <mxGeometry relative="1" as="geometry" />
        </mxCell>
        <mxCell id="TT09oPKRdmAvClJlmY-6-53" value="" style="endArrow=diamondThin;endFill=1;endSize=24;html=1;" parent="1" source="TT09oPKRdmAvClJlmY-6-47" target="TT09oPKRdmAvClJlmY-6-39" edge="1">
          <mxGeometry width="160" relative="1" as="geometry">
            <mxPoint x="360" y="734" as="sourcePoint" />
            <mxPoint x="520" y="734" as="targetPoint" />
          </mxGeometry>
        </mxCell>
        <mxCell id="TT09oPKRdmAvClJlmY-6-58" value="CompositeLineStyle" style="swimlane;fontStyle=1;align=center;verticalAlign=top;childLayout=stackLayout;horizontal=1;startSize=26;horizontalStack=0;resizeParent=1;resizeParentMax=0;resizeLast=0;collapsible=1;marginBottom=0;fillColor=#d5e8d4;strokeColor=#82b366;" parent="1" vertex="1">
          <mxGeometry x="520" y="1014" width="360" height="138" as="geometry" />
        </mxCell>
        <mxCell id="xqWCQ_YpUUxvD-THX_jM-2" value="CompoundLineStyle(childEnumerator: ILineStyleEnumerator&amp;)" style="text;strokeColor=none;fillColor=none;align=left;verticalAlign=top;spacingLeft=4;spacingRight=4;overflow=hidden;rotatable=0;points=[[0,0.5],[1,0.5]];portConstraint=eastwest;fontStyle=0" vertex="1" parent="TT09oPKRdmAvClJlmY-6-58">
          <mxGeometry y="26" width="360" height="26" as="geometry" />
        </mxCell>
        <mxCell id="TT09oPKRdmAvClJlmY-6-59" value="GetColor(): ?Color" style="text;strokeColor=none;fillColor=none;align=left;verticalAlign=top;spacingLeft=4;spacingRight=4;overflow=hidden;rotatable=0;points=[[0,0.5],[1,0.5]];portConstraint=eastwest;fontStyle=0" parent="TT09oPKRdmAvClJlmY-6-58" vertex="1">
          <mxGeometry y="52" width="360" height="26" as="geometry" />
        </mxCell>
        <mxCell id="TT09oPKRdmAvClJlmY-6-79" value="SetColor(color: Color)" style="text;strokeColor=none;fillColor=none;align=left;verticalAlign=top;spacingLeft=4;spacingRight=4;overflow=hidden;rotatable=0;points=[[0,0.5],[1,0.5]];portConstraint=eastwest;fontStyle=0" parent="TT09oPKRdmAvClJlmY-6-58" vertex="1">
          <mxGeometry y="78" width="360" height="26" as="geometry" />
        </mxCell>
        <mxCell id="xqWCQ_YpUUxvD-THX_jM-3" value="" style="line;strokeWidth=1;fillColor=none;align=left;verticalAlign=middle;spacingTop=-1;spacingLeft=3;spacingRight=3;rotatable=0;labelPosition=right;points=[];portConstraint=eastwest;strokeColor=inherit;" vertex="1" parent="TT09oPKRdmAvClJlmY-6-58">
          <mxGeometry y="104" width="360" height="8" as="geometry" />
        </mxCell>
        <mxCell id="xqWCQ_YpUUxvD-THX_jM-4" value="m_lineStyleEnum:ILineStyleEnumerator&amp;amp;" style="text;strokeColor=none;fillColor=none;align=left;verticalAlign=top;spacingLeft=4;spacingRight=4;overflow=hidden;rotatable=0;points=[[0,0.5],[1,0.5]];portConstraint=eastwest;whiteSpace=wrap;html=1;" vertex="1" parent="TT09oPKRdmAvClJlmY-6-58">
          <mxGeometry y="112" width="360" height="26" as="geometry" />
        </mxCell>
        <mxCell id="TT09oPKRdmAvClJlmY-6-61" value="" style="endArrow=block;dashed=1;endFill=0;endSize=12;html=1;" parent="1" source="TT09oPKRdmAvClJlmY-6-58" target="TT09oPKRdmAvClJlmY-6-34" edge="1">
          <mxGeometry width="160" relative="1" as="geometry">
            <mxPoint x="630" y="924" as="sourcePoint" />
            <mxPoint x="790" y="924" as="targetPoint" />
          </mxGeometry>
        </mxCell>
        <mxCell id="TT09oPKRdmAvClJlmY-6-62" value="Использует ILineStyleEnumerator для перебора всех фигур, которые сейчас находятся внутри группы" style="shape=note;whiteSpace=wrap;html=1;backgroundOutline=1;darkOpacity=0.05;size=19;align=left;fillColor=#ffff88;strokeColor=#36393d;" parent="1" vertex="1">
          <mxGeometry x="700" y="876" width="247" height="80" as="geometry" />
        </mxCell>
        <mxCell id="TT09oPKRdmAvClJlmY-6-63" style="edgeStyle=orthogonalEdgeStyle;rounded=0;orthogonalLoop=1;jettySize=auto;html=1;" parent="1" source="TT09oPKRdmAvClJlmY-6-59" target="TT09oPKRdmAvClJlmY-6-62" edge="1">
          <mxGeometry relative="1" as="geometry" />
        </mxCell>
        <mxCell id="TT09oPKRdmAvClJlmY-6-67" value="Создаёт объект, реализующий интерфейс ILineStyleEnumerator, либо сам его реализует. Передаёт этот интерфейс в конструктор CompositeLineStyle" style="shape=note;whiteSpace=wrap;html=1;backgroundOutline=1;darkOpacity=0.05;size=19;align=left;fillColor=#ffff88;strokeColor=#36393d;" parent="1" vertex="1">
          <mxGeometry x="-160" y="1094" width="280" height="100" as="geometry" />
        </mxCell>
        <mxCell id="TT09oPKRdmAvClJlmY-6-68" style="edgeStyle=orthogonalEdgeStyle;rounded=0;orthogonalLoop=1;jettySize=auto;html=1;" parent="1" source="TT09oPKRdmAvClJlmY-6-65" target="TT09oPKRdmAvClJlmY-6-67" edge="1">
          <mxGeometry relative="1" as="geometry" />
        </mxCell>
        <mxCell id="TT09oPKRdmAvClJlmY-6-72" value="ILineStyleEnumerator" style="swimlane;fontStyle=1;align=center;verticalAlign=top;childLayout=stackLayout;horizontal=1;startSize=26;horizontalStack=0;resizeParent=1;resizeParentMax=0;resizeLast=0;collapsible=1;marginBottom=0;fillColor=#d5e8d4;strokeColor=#82b366;" parent="1" vertex="1">
          <mxGeometry x="360" y="904" width="220" height="52" as="geometry" />
        </mxCell>
        <mxCell id="TT09oPKRdmAvClJlmY-6-73" value="EnumerateAll(callback: fn(ILineStyle))" style="text;strokeColor=none;fillColor=none;align=left;verticalAlign=top;spacingLeft=4;spacingRight=4;overflow=hidden;rotatable=0;points=[[0,0.5],[1,0.5]];portConstraint=eastwest;fontStyle=2" parent="TT09oPKRdmAvClJlmY-6-72" vertex="1">
          <mxGeometry y="26" width="220" height="26" as="geometry" />
        </mxCell>
        <mxCell id="TT09oPKRdmAvClJlmY-6-76" value="private" style="endArrow=block;dashed=1;endFill=0;endSize=12;html=1;" parent="1" source="TT09oPKRdmAvClJlmY-6-44" target="TT09oPKRdmAvClJlmY-6-72" edge="1">
          <mxGeometry width="160" relative="1" as="geometry">
            <mxPoint x="220" y="1184" as="sourcePoint" />
            <mxPoint x="380" y="1184" as="targetPoint" />
          </mxGeometry>
        </mxCell>
        <mxCell id="TT09oPKRdmAvClJlmY-6-77" value="" style="endArrow=diamondThin;endFill=1;endSize=24;html=1;" parent="1" source="TT09oPKRdmAvClJlmY-6-58" target="TT09oPKRdmAvClJlmY-6-44" edge="1">
          <mxGeometry width="160" relative="1" as="geometry">
            <mxPoint x="290" y="1174" as="sourcePoint" />
            <mxPoint x="450" y="1174" as="targetPoint" />
          </mxGeometry>
        </mxCell>
        <mxCell id="xqWCQ_YpUUxvD-THX_jM-1" value="" style="endArrow=diamondThin;endFill=0;endSize=24;html=1;rounded=0;" edge="1" parent="1" source="TT09oPKRdmAvClJlmY-6-72" target="TT09oPKRdmAvClJlmY-6-58">
          <mxGeometry width="160" relative="1" as="geometry">
            <mxPoint x="540" y="1174" as="sourcePoint" />
            <mxPoint x="700" y="1174" as="targetPoint" />
          </mxGeometry>
        </mxCell>
      </root>
    </mxGraphModel>
  </diagram>
</mxfile>
